# xmcd
#
# Track frame offsets: 
#        150
#        11535
#        23625
#        35585
#        49872
#        65428
#        80348
#        94476
#        111013
#        125259
#        136351
#        146939
#        157495
#        175495
#        190991
#        208103
#        221543
#        234957
#        249432
#        267804
#        286441
#        300534
#        314699
#        327387
#        341071
#
# Disc length: 4707 seconds
#
# Revision: 0
# Processed by: cddbd v1.5.2PL0 Copyright (c) Steve Scherf et al.
# Submitted via: ExactAudioCopy v1.3
#
DISCID=7f126119
DTITLE=Various Artist - Akella Presents - vol.204 - Rockin' Rollers B
DTITLE=lues  CD1
DYEAR=2019
DGENRE=Blues
TTITLE0=Too Slim And The Taildraggers - Feel So Good
TTITLE1=The Bluesanovas - Heads Up
TTITLE2=Big Gilson and The Wolf - Lulu Boogie
TTITLE3=Ryan Foret - Harry Biscuit and the Jam
TTITLE4=Lee Rocker - Sexy And 17
TTITLE5=Ken Tucker - Big Train Tracks
TTITLE6=The 40 Acre Mule - Josephine
TTITLE7=Chris Bevington Organisation - Rollin'
TTITLE8=Steve Gannon Band - 52 Ford
TTITLE9=Blueberry Hill - Git It
TTITLE10=Sister Suzie - Desire
TTITLE11=Alabama Mike - Few More Days
TTITLE12=Billy C. Farlow - Jennie's Comin' Home
TTITLE13=Bill Deraime - Bobo boogie
TTITLE14=Sax Gordon - Things Won't Be The Same
TTITLE15=Richard Wilkins - Down in Carolina
TTITLE16=The Dick Powell Band - Big Ten Inch
TTITLE17=Travellin' Blue Kings - Into the Night
TTITLE18=Dry Riverbed Trio - Sunset Boogie
TTITLE19=Johnny Hoy - Mellow Chick Swing
TTITLE20=King Bee and The Stingers - Buzz Awhile
TTITLE21=Kenny 'Blues Boss' Wayne - An Old Brick Wall
TTITLE22=Jimmie Vaughan - I Want To Love You
TTITLE23=The Randy Oxford Band - La Plaga
TTITLE24=Lee Rocker - Bulletproof
EXTD=
EXTT0=
EXTT1=
EXTT2=
EXTT3=
EXTT4=
EXTT5=
EXTT6=
EXTT7=
EXTT8=
EXTT9=
EXTT10=
EXTT11=
EXTT12=
EXTT13=
EXTT14=
EXTT15=
EXTT16=
EXTT17=
EXTT18=
EXTT19=
EXTT20=
EXTT21=
EXTT22=
EXTT23=
EXTT24=
PLAYORDER=
